<svg xmlns="http://www.w3.org/2000/svg" width="1180" height="560" viewBox="0 0 1180 560" role="img" aria-label="YOLO MQTT benchmark vergelijking"><defs><linearGradient id="bg" x1="0" x2="1" y1="0" y2="1"><stop offset="0%" stop-color="#f8f3ec" /><stop offset="100%" stop-color="#efe4d7" /></linearGradient><linearGradient id="local" x1="0" x2="1" y1="0" y2="0"><stop offset="0%" stop-color="#2f6fed" /><stop offset="100%" stop-color="#78a4ff" /></linearGradient><linearGradient id="cloud" x1="0" x2="1" y1="0" y2="0"><stop offset="0%" stop-color="#d97706" /><stop offset="100%" stop-color="#f2b267" /></linearGradient></defs><rect x="0" y="0" width="1180" height="560" fill="url(#bg)" rx="28" /><text x="70" y="68" font-family="Segoe UI, Helvetica Neue, sans-serif" font-size="34" font-weight="700" fill="#1c1917">YOLO MQTT benchmark: lokaal vs cloud/Tailscale</text><text x="70" y="96" font-family="Segoe UI, Helvetica Neue, sans-serif" font-size="16" fill="#6b5f55">Medianen op per-image gemiddelden over dezelfde 100 testimages</text><rect x="70" y="505" width="18" height="18" rx="6" fill="url(#local)" /><text x="98" y="519" font-family="Segoe UI, Helvetica Neue, sans-serif" font-size="14" fill="#1c1917">Lokaal</text><rect x="170" y="505" width="18" height="18" rx="6" fill="url(#cloud)" /><text x="198" y="519" font-family="Segoe UI, Helvetica Neue, sans-serif" font-size="14" fill="#1c1917">Cloud via Tailscale</text><line x1="270.0" y1="112" x2="270.0" y2="470" stroke="#d8ccbd" stroke-width="1" stroke-dasharray="4 6" /><text x="270.0" y="108" text-anchor="middle" font-family="Segoe UI, Helvetica Neue, sans-serif" font-size="12" fill="#6b5f55">0 ms</text><line x1="346.2" y1="112" x2="346.2" y2="470" stroke="#d8ccbd" stroke-width="1" stroke-dasharray="4 6" /><text x="346.2" y="108" text-anchor="middle" font-family="Segoe UI, Helvetica Neue, sans-serif" font-size="12" fill="#6b5f55">5 ms</text><line x1="422.3" y1="112" x2="422.3" y2="470" stroke="#d8ccbd" stroke-width="1" stroke-dasharray="4 6" /><text x="422.3" y="108" text-anchor="middle" font-family="Segoe UI, Helvetica Neue, sans-serif" font-size="12" fill="#6b5f55">10 ms</text><line x1="498.5" y1="112" x2="498.5" y2="470" stroke="#d8ccbd" stroke-width="1" stroke-dasharray="4 6" /><text x="498.5" y="108" text-anchor="middle" font-family="Segoe UI, Helvetica Neue, sans-serif" font-size="12" fill="#6b5f55">15 ms</text><line x1="574.7" y1="112" x2="574.7" y2="470" stroke="#d8ccbd" stroke-width="1" stroke-dasharray="4 6" /><text x="574.7" y="108" text-anchor="middle" font-family="Segoe UI, Helvetica Neue, sans-serif" font-size="12" fill="#6b5f55">20 ms</text><line x1="650.9" y1="112" x2="650.9" y2="470" stroke="#d8ccbd" stroke-width="1" stroke-dasharray="4 6" /><text x="650.9" y="108" text-anchor="middle" font-family="Segoe UI, Helvetica Neue, sans-serif" font-size="12" fill="#6b5f55">25 ms</text><text x="70" y="138" font-family="Segoe UI, Helvetica Neue, sans-serif" font-size="18" font-weight="700" fill="#1c1917">Inferentie</text><rect x="270" y="120" width="830.0" height="24" rx="12" fill="url(#local)" /><text x="1110.0" y="137" font-family="Segoe UI, Helvetica Neue, sans-serif" font-size="13" fill="#1c1917">54.48 ms</text><rect x="270" y="156" width="826.5" height="24" rx="12" fill="url(#cloud)" /><text x="1106.5" y="173" font-family="Segoe UI, Helvetica Neue, sans-serif" font-size="13" fill="#1c1917">54.25 ms</text><text x="70" y="230" font-family="Segoe UI, Helvetica Neue, sans-serif" font-size="18" font-weight="700" fill="#1c1917">Publisher naar subscriber</text><rect x="270" y="212" width="24.4" height="24" rx="12" fill="url(#local)" /><text x="304.4" y="229" font-family="Segoe UI, Helvetica Neue, sans-serif" font-size="13" fill="#1c1917">1.60 ms</text><rect x="270" y="248" width="179.3" height="24" rx="12" fill="url(#cloud)" /><text x="459.3" y="265" font-family="Segoe UI, Helvetica Neue, sans-serif" font-size="13" fill="#1c1917">11.77 ms</text><text x="70" y="322" font-family="Segoe UI, Helvetica Neue, sans-serif" font-size="18" font-weight="700" fill="#1c1917">Ack terug naar publisher</text><rect x="270" y="304" width="40.1" height="24" rx="12" fill="url(#local)" /><text x="320.1" y="321" font-family="Segoe UI, Helvetica Neue, sans-serif" font-size="13" fill="#1c1917">2.63 ms</text><rect x="270" y="340" width="193.8" height="24" rx="12" fill="url(#cloud)" /><text x="473.8" y="357" font-family="Segoe UI, Helvetica Neue, sans-serif" font-size="13" fill="#1c1917">12.72 ms</text><text x="70" y="414" font-family="Segoe UI, Helvetica Neue, sans-serif" font-size="18" font-weight="700" fill="#1c1917">Totale roundtrip</text><rect x="270" y="396" width="65.4" height="24" rx="12" fill="url(#local)" /><text x="345.4" y="413" font-family="Segoe UI, Helvetica Neue, sans-serif" font-size="13" fill="#1c1917">4.29 ms</text><rect x="270" y="432" width="374.0" height="24" rx="12" fill="url(#cloud)" /><text x="654.0" y="449" font-family="Segoe UI, Helvetica Neue, sans-serif" font-size="13" fill="#1c1917">24.55 ms</text></svg>